<svg xmlns="http://www.w3.org/2000/svg" width="424" height="76" viewBox="0 0 424 76" fill="none">
<path fill="#F43676" d="M264.101 58.447V17.553h10.52v15.363h13.37V17.553h10.52v40.894h-10.52V41.98h-13.37v16.468h-10.52ZM304.541 58.447l13.479-40.894h14.192l13.479 40.894h-10.958l-2.137-6.852h-14.959l-2.137 6.852h-10.959Zm15.89-15.915h9.37l-4.657-15.087-4.713 15.087ZM366.492 59c-2.812 0-5.223-.332-7.232-.995-1.973-.663-3.617-1.51-4.932-2.542-1.278-1.031-2.301-2.137-3.068-3.316-.767-1.179-1.334-2.284-1.699-3.315-.365-1.032-.603-1.88-.712-2.543l-.165-.994h10.63l.22.773c.146.516.456 1.124.931 1.824.512.663 1.279 1.253 2.301 1.768 1.023.516 2.411.774 4.165.774 2.155 0 3.653-.405 4.493-1.216.877-.847 1.315-1.75 1.315-2.708 0-.884-.329-1.584-.986-2.1-.621-.552-1.717-.957-3.288-1.215l-5.425-.885a30.04 30.04 0 0 1-6.63-1.934c-2.082-.884-3.78-2.155-5.095-3.813-1.279-1.658-1.918-3.831-1.918-6.52 0-2.58.639-4.846 1.918-6.798 1.315-1.953 3.178-3.482 5.589-4.587 2.41-1.105 5.278-1.658 8.602-1.658 2.594 0 4.804.313 6.63.94 1.827.589 3.343 1.381 4.548 2.376 1.206.958 2.174 1.97 2.904 3.04.731 1.068 1.279 2.1 1.644 3.094.365.958.603 1.75.712 2.376l.165.884h-10.356l-.219-.607c-.11-.443-.384-.921-.822-1.437-.439-.553-1.096-1.032-1.973-1.437-.84-.442-1.991-.663-3.452-.663-1.388 0-2.502.202-3.342.608-.804.405-1.389.902-1.754 1.492-.329.59-.493 1.179-.493 1.768 0 1.069.493 1.86 1.479 2.377 1.023.478 2.265.847 3.726 1.105l5.699.94c2.265.368 4.347 1.03 6.247 1.989 1.936.92 3.488 2.21 4.657 3.868 1.169 1.621 1.753 3.666 1.753 6.134 0 2.542-.657 4.808-1.972 6.798-1.315 1.99-3.215 3.555-5.699 4.697-2.484 1.105-5.516 1.658-9.096 1.658ZM389.589 58.447V17.553h10.521v15.363h13.37V17.553H424v40.894h-10.52V41.98h-13.37v16.468h-10.521Z"/>
<path fill="#000" d="M94 58.448V17.553h20.822c2.666 0 4.895.442 6.685 1.326 1.789.884 3.141 2.082 4.054 3.592.914 1.51 1.37 3.206 1.37 5.084 0 2.469-.639 4.422-1.918 5.858-1.278 1.4-2.739 2.34-4.383 2.819v.497c1.059.221 2.21.7 3.452 1.437 1.278.737 2.356 1.805 3.233 3.205.913 1.363 1.37 3.15 1.37 5.36 0 1.953-.457 3.832-1.37 5.638-.914 1.768-2.356 3.223-4.329 4.365-1.936 1.143-4.511 1.714-7.726 1.714H94Zm18.63-32.108h-8.11v7.129h8.11c1.388 0 2.429-.313 3.123-.94.694-.663 1.041-1.547 1.041-2.652 0-1.069-.347-1.916-1.041-2.543-.694-.663-1.735-.994-3.123-.994Zm.767 15.031h-8.877v8.29h8.877c1.607 0 2.795-.387 3.562-1.16.767-.774 1.15-1.788 1.15-3.04 0-1.253-.383-2.248-1.15-2.984-.767-.737-1.955-1.106-3.562-1.106ZM135.83 58.448V17.553h10.52v31.72h19.123v9.175H135.83ZM191.225 59c-3.507 0-6.575-.59-9.205-1.768-2.63-1.216-4.822-2.819-6.576-4.808a21.646 21.646 0 0 1-4-6.797 23.117 23.117 0 0 1-1.315-7.682c0-2.616.439-5.158 1.315-7.626a20.986 20.986 0 0 1 4-6.742c1.754-1.99 3.946-3.574 6.576-4.753 2.63-1.216 5.698-1.824 9.205-1.824 3.507 0 6.575.608 9.205 1.824 2.631 1.179 4.822 2.763 6.576 4.753a19.735 19.735 0 0 1 4 6.742 22.64 22.64 0 0 1 1.315 7.626c0 2.616-.439 5.176-1.315 7.682a20.328 20.328 0 0 1-4 6.797c-1.754 1.99-3.945 3.592-6.576 4.808C197.8 58.41 194.732 59 191.225 59Zm0-9.45c2.265 0 4.146-.552 5.644-1.658a10.366 10.366 0 0 0 3.342-4.365 14.14 14.14 0 0 0 1.151-5.582c0-1.916-.384-3.758-1.151-5.526-.73-1.769-1.845-3.206-3.342-4.31-1.498-1.143-3.379-1.714-5.644-1.714-2.228 0-4.091.571-5.589 1.713-1.498 1.105-2.63 2.542-3.397 4.31a14.328 14.328 0 0 0-1.096 5.527c0 1.916.365 3.776 1.096 5.582.767 1.768 1.899 3.223 3.397 4.365 1.498 1.106 3.361 1.658 5.589 1.658ZM238.297 59c-3.507 0-6.575-.59-9.205-1.768-2.63-1.18-4.822-2.763-6.575-4.753a20.185 20.185 0 0 1-3.946-6.742 23.117 23.117 0 0 1-1.315-7.681c0-2.616.439-5.177 1.315-7.682a20.988 20.988 0 0 1 4-6.742c1.79-2.027 4.019-3.63 6.685-4.808 2.667-1.216 5.772-1.824 9.315-1.824 2.813 0 5.224.35 7.233 1.05 2.046.7 3.744 1.621 5.096 2.763 1.351 1.106 2.429 2.285 3.233 3.537.84 1.253 1.461 2.45 1.863 3.592.438 1.106.73 2.008.876 2.708l.22 1.05h-10.411l-.329-.829c-.183-.552-.566-1.179-1.151-1.879-.548-.7-1.351-1.326-2.411-1.879-1.059-.552-2.465-.828-4.219-.828-2.301 0-4.237.57-5.808 1.713-1.534 1.105-2.703 2.542-3.507 4.31a13.88 13.88 0 0 0-1.15 5.582c0 1.952.401 3.85 1.205 5.692a11.202 11.202 0 0 0 3.562 4.476c1.607 1.142 3.58 1.713 5.917 1.713 2.302 0 4.128-.516 5.48-1.547 1.388-1.068 2.301-2.468 2.74-4.2h-9.48v-8.179h19.945v3.371c0 4.31-.822 7.94-2.466 10.887-1.643 2.947-3.908 5.176-6.794 6.687-2.849 1.473-6.155 2.21-9.918 2.21Z"/>
<path fill="#F43676" fill-rule="evenodd" d="M22.927.013a11.025 11.025 0 0 0-5.984 2.194 12.675 12.675 0 0 0-1.74 1.633 11.092 11.092 0 0 0-2.581 5.881c-.085.709-.087 1.81-.004 2.546.013.111.02.205.018.208a1.854 1.854 0 0 1-.195-.018c-.552-.067-1.603-.08-2.213-.026-1.335.117-2.691.501-3.906 1.107a10.9 10.9 0 0 0-3.582 2.84 10.904 10.904 0 0 0-2.178 4.26C.314 21.598.22 22.37.22 23.41c0 1 .091 1.771.315 2.665a11.02 11.02 0 0 0 1.84 3.9c.479.644.247.403 4.857 5.042 1.567 1.576 2.85 2.87 2.853 2.877.002.007-1.537 1.562-3.421 3.456-3.477 3.494-3.845 3.87-4.161 4.25a11.135 11.135 0 0 0-2.114 4.087 11.06 11.06 0 0 0-.003 5.797 10.983 10.983 0 0 0 2.45 4.493 12.155 12.155 0 0 0 1.623 1.48 11.057 11.057 0 0 0 5.51 2.114c.37.037 1.772.032 2.151-.008.163-.017.3-.028.304-.024a2.91 2.91 0 0 1-.023.301 11.021 11.021 0 0 0 9.061 12.005c1.13.198 2.526.206 3.637.02a11.045 11.045 0 0 0 4.814-2.042c.618-.464.63-.476 4.414-4.268l3.653-3.66 3.666 3.669c2.525 2.528 3.738 3.73 3.897 3.86 1.379 1.138 2.856 1.88 4.565 2.29 1.398.337 3.046.378 4.493.113 1.294-.238 2.6-.733 3.707-1.407.755-.46 1.34-.914 1.963-1.525.949-.928 1.6-1.816 2.174-2.96.617-1.231.972-2.45 1.126-3.87.047-.433.047-1.709 0-2.154a5.626 5.626 0 0 0-.044-.35c-.01-.032-.002-.034.09-.023.326.04.533.051 1.082.06 1.08.02 1.726-.039 2.616-.238a11.022 11.022 0 0 0 4.722-2.323 14.439 14.439 0 0 0 1.33-1.33 11.081 11.081 0 0 0 2.296-4.548c.15-.622.302-1.696.31-2.2.002-.152.005-.168.016-.092.007.052.012-.073.012-.288 0-.209-.005-.33-.011-.269-.008.084-.014.033-.024-.204a14.736 14.736 0 0 0-.19-1.54c-.324-1.77-1.174-3.593-2.318-4.97-.295-.355-.754-.824-4.314-4.404a435.758 435.758 0 0 1-3.262-3.297c.006-.016 1.128-1.148 4.01-4.044 2.972-2.987 3.234-3.261 3.638-3.796 1.306-1.73 2.054-3.751 2.2-5.949.028-.408.012-1.387-.028-1.782a11.02 11.02 0 0 0-2.333-5.768 11.774 11.774 0 0 0-2.028-1.972c-1.331-.999-2.816-1.657-4.499-1.994-.642-.128-1.054-.171-1.8-.19-.474-.01-1.125.011-1.508.052-.11.011-.203.018-.206.014a2.142 2.142 0 0 1 .019-.23c.081-.738.08-1.76-.003-2.478a11.048 11.048 0 0 0-4.34-7.56 9.755 9.755 0 0 0-1.763-1.073c-.999-.489-1.9-.783-2.95-.963a10.944 10.944 0 0 0-5.399.419c-1.22.41-2.511 1.128-3.469 1.929-.388.324-.777.708-3.997 3.941L37.98 9.909 34.932 6.85c-3.408-3.422-4.027-4.033-4.361-4.312a10.991 10.991 0 0 0-5.566-2.44 12.778 12.778 0 0 0-2.078-.085ZM.004 52.598c0 .21.002.295.006.19a7.308 7.308 0 0 0 0-.38c-.004-.105-.006-.02-.006.19Z" clip-rule="evenodd"/>
<path fill="#fff" fill-rule="evenodd" d="M23.882 8.006a6.824 6.824 0 0 1-.18.024c-1.273.154-2.454.924-3.151 2.056a4.416 4.416 0 0 0 .332 5.07c.088.11 10.908 10.987 10.908 10.987l-5.527 5.548S15.468 20.86 15.352 20.762c-.19-.16-.536-.39-.765-.51a4.408 4.408 0 0 0-3.54-.228 5.546 5.546 0 0 0-.873.44 4.411 4.411 0 0 0-1.896 2.78 3.92 3.92 0 0 0-.087.898c0 .37.014.532.079.865.148.767.525 1.521 1.045 2.089.067.073 8.252 8.295 10.76 10.814 0 0-11.017 11.057-11.16 11.246a4.448 4.448 0 0 0-.885 2.08c-.04.246-.04 1 0 1.257a4.38 4.38 0 0 0 1.19 2.42 4.334 4.334 0 0 0 2.592 1.307 4.402 4.402 0 0 0 2.654-.502c.17-.094.487-.305.652-.436a7811.31 7811.31 0 0 0 11.154-11.158l5.526 5.548S20.806 60.706 20.693 60.847a4.428 4.428 0 0 0-.968 2.39c-.023.25-.01.78.025 1.01.151.981.568 1.814 1.249 2.493a4.385 4.385 0 0 0 2.446 1.235c.251.04.858.048 1.132.016a4.385 4.385 0 0 0 2.281-.963c.087-.071 11.131-11.135 11.131-11.135S49.032 66.955 49.12 67.027a4.464 4.464 0 0 0 2.133.948c.251.04.858.048 1.132.016.53-.061.99-.198 1.461-.433a4.394 4.394 0 0 0 2.298-2.882c.09-.368.114-.582.115-1.04 0-.433-.01-.554-.078-.894a4.413 4.413 0 0 0-.832-1.816c-.145-.191-11.169-11.254-11.169-11.254l5.526-5.548S60.76 55.2 60.876 55.292c.35.277.834.551 1.224.694a4.38 4.38 0 0 0 4.283-.721 4.43 4.43 0 0 0 1.586-2.982c0-.03.007-.058.015-.063.01-.006.016-.15.016-.377 0-.241-.005-.364-.016-.358-.009.006-.015-.013-.015-.046a4.42 4.42 0 0 0-.904-2.283c-.145-.19-11.16-11.245-11.16-11.245s10.82-10.878 10.907-10.987a4.455 4.455 0 0 0 .898-1.92c.064-.332.078-.492.078-.87 0-.292-.007-.405-.036-.602a4.4 4.4 0 0 0-1.947-3.067 5.6 5.6 0 0 0-.873-.441c-1.488-.683-2.786-.44-3.797.374-.418.255-11.426 11.293-11.426 11.293l-5.514-5.546c.002.007-.002-.006 0 0-.002-.006-.002-.006 0 0 .002.007 10.696-10.757 10.759-10.826a4.44 4.44 0 0 0 .93-1.653c.209-.69.244-1.447.1-2.168a4.51 4.51 0 0 0-.867-1.86 6.431 6.431 0 0 0-.693-.694 4.46 4.46 0 0 0-.789-.494 4.058 4.058 0 0 0-1.222-.401c-.232-.041-.273-.044-.707-.044-.368 0-.496.006-.633.028a4.38 4.38 0 0 0-2.155.955c-.092.075-10.929 10.926-10.929 10.926.007 0-10.836-10.85-10.929-10.926a4.405 4.405 0 0 0-2.139-.953 8.95 8.95 0 0 0-1.039-.029Zm8.58 29.9 5.668 5.668 5.386-5.669-5.527-5.542-5.527 5.542ZM8.001 51.86c0 .207.002.289.005.183a8.637 8.637 0 0 0 0-.375c-.003-.1-.005-.014-.005.192Z" clip-rule="evenodd"/>
</svg>