<svg xmlns="http://www.w3.org/2000/svg" width="735" height="369" viewBox="0 0 735 369" fill="none"><g clip-path="url(#a)"><path fill="#EFEFEF" d="M2.999 0H572a2.992 2.992 0 0 1 2.771 1.854c.151.365.228.756.228 1.15V369H0V3.005C0 2.208.316 1.444.878.88A2.995 2.995 0 0 1 2.998 0Z"/><path fill="#fff" d="M10.6 38.12h554.57v320.69H10.6V38.12Z"/><path fill="#000" d="M2.999 0H572c.394 0 .784.079 1.148.233.364.154.695.38.973.665.279.285.5.624.65.996.151.373.228.772.228 1.175V25H0V3.069c0-.814.316-1.595.878-2.17A2.964 2.964 0 0 1 2.998 0Z"/><path fill="#fff" d="M525.588 17a4.636 4.636 0 0 0 3.244-1.318 4.458 4.458 0 0 0 1.343-3.182 4.457 4.457 0 0 0-1.343-3.182A4.636 4.636 0 0 0 525.588 8a4.632 4.632 0 0 0-3.244 1.318A4.454 4.454 0 0 0 521 12.5c0 1.194.483 2.338 1.344 3.182A4.632 4.632 0 0 0 525.588 17ZM543 17a4.632 4.632 0 0 0 3.244-1.318 4.454 4.454 0 0 0 1.344-3.182 4.454 4.454 0 0 0-1.344-3.182A4.632 4.632 0 0 0 543 8a4.632 4.632 0 0 0-3.243 1.318 4.454 4.454 0 0 0-1.344 3.182c0 1.194.483 2.338 1.344 3.182A4.632 4.632 0 0 0 543 17Zm17.412 0a4.632 4.632 0 0 0 3.244-1.318A4.454 4.454 0 0 0 565 12.5a4.454 4.454 0 0 0-1.344-3.182A4.632 4.632 0 0 0 560.412 8a4.636 4.636 0 0 0-3.244 1.318 4.457 4.457 0 0 0-1.343 3.182c0 1.194.483 2.338 1.343 3.182A4.636 4.636 0 0 0 560.412 17Z"/><path fill="#ffeede" d="M66 78h139v110H66V78Zm304 172h139v11H370v-11Zm0 18h139v11H370v-11Zm0 19h139v11H370v-11Zm0 18h72v11h-72v-11ZM229.401 77.709h116.138v65.535H229.401V77.709ZM370 78h140v152H370V78Z"/><path fill="#F43676" d="M345.539 163.494H229.401v66.512h116.138v-66.512Z"/><path fill="#ffeede" d="M66 212h140v104H66V212Zm279.539 38H229.401v66h116.138v-66Z"/><path fill="#0D1218" d="M640 162.4h-1.488v-40.792a23.622 23.622 0 0 0-6.909-16.693A23.577 23.577 0 0 0 614.926 98h-86.339a23.581 23.581 0 0 0-16.678 6.915A23.626 23.626 0 0 0 505 121.608v223.784a23.624 23.624 0 0 0 6.909 16.693A23.577 23.577 0 0 0 528.587 369h86.339a23.563 23.563 0 0 0 13.104-3.977 23.621 23.621 0 0 0 10.482-19.631V191.435H640V162.4Z"/><path fill="#fff" d="M556.467 106a2.5 2.5 0 1 0 0 5h23a2.5 2.5 0 1 0 0-5h-23Zm32 5a2.5 2.5 0 1 0 0-5 2.5 2.5 0 0 0 0 5Z"/><path fill="#fff" d="M633.538 122.656v223.545a17.627 17.627 0 0 1-5.164 12.473 17.648 17.648 0 0 1-12.472 5.168h-86.873a17.648 17.648 0 0 1-12.472-5.168 17.644 17.644 0 0 1-5.164-12.473V122.656a17.639 17.639 0 0 1 17.636-17.635h10.538a8.382 8.382 0 0 0 7.76 11.542h49.53a8.381 8.381 0 0 0 7.759-11.542h11.285a17.636 17.636 0 0 1 17.637 17.635Z"/><path fill="#ffeede" d="M531.5 156c-5.799 0-10.5-4.701-10.5-10.5s4.701-10.5 10.5-10.5 10.5 4.701 10.5 10.5-4.701 10.5-10.5 10.5Zm91.5-21h-75v3h75v-3Zm0 9h-75v3h75v-3Zm-75 9h75v3h-75v-3Zm-16.5 170c-5.799 0-10.5-4.701-10.5-10.5s4.701-10.5 10.5-10.5 10.5 4.701 10.5 10.5-4.701 10.5-10.5 10.5Zm16.5-21h75v3h-75v-3Zm75 9h-75v3h75v-3Zm-75 9h75v3h-75v-3Zm-27 18h102v3H521v-3Zm0 9h53v3h-53v-3Z"/><path fill="#ffeede" fill-rule="evenodd" d="M593.122 209.073c-1.295.255-2.088 1.27-1.843 2.36.117.519.441 1.13.781 1.468.214.214.487.35 1.096.548.446.144.904.311 1.019.37.372.192.979.882 1.237 1.404.458.929.544 1.412.542 3.059-.001 1.339-.025 1.587-.235 2.479-.306 1.299-.766 2.542-1.47 3.967l-.571 1.157.545-.573c2.449-2.578 4.08-7.317 3.763-10.929-.135-1.531-.57-2.754-1.348-3.786-.65-.862-1.461-1.372-2.435-1.531-.544-.089-.594-.089-1.081.007Zm23.862.118c-.145.062-.303.187-.352.279-.05.092-.09.604-.09 1.148 0 2.057-.805 3.838-2.559 5.661-1.963 2.04-4.821 3.654-8.831 4.987-.729.242-1.251.442-1.159.443.351.006 2.279-.346 3.431-.626 2.44-.593 4.708-1.468 5.962-2.299.737-.489 1.993-1.802 2.607-2.725.535-.805 1.27-2.279 1.54-3.088.46-1.383.552-2.697.231-3.321-.253-.494-.44-.603-.78-.459Zm3.831 1.506c-.101.448-.376.695-1.199 1.079-.957.446-1.28.683-1.545 1.135-.227.385-.41 1.149-.254 1.058.05-.03.316-.247.589-.482.665-.573 1.546-1.21 1.599-1.157.074.074-.244.37-1.123 1.047-.467.36-.849.694-.849.741 0 .125.459.011.953-.237.569-.286 1.534-1.271 1.801-1.838.294-.625.349-.983.206-1.327l-.118-.284-.06.265Zm-14.512 1.299a.772.772 0 0 0-.018.31c.038.273.525.326.607.067.105-.33-.467-.696-.589-.377Zm5.055.831c-.097.149-.154.523-.204 1.343-.037.626-.114 1.268-.169 1.427-.379 1.088-2.424 3.034-4.455 4.239-.368.218-1.21.642-1.873.943-.662.3-1.192.558-1.177.573.015.014.571-.14 1.237-.343 2.668-.814 4.595-1.85 5.974-3.21 1.816-1.79 2.509-4.049 1.539-5.016-.239-.239-.701-.216-.872.044Zm-12.285.199c-.258.258-.218.63.147 1.376.802 1.639.781 3.329-.067 5.346-.604 1.435-1.77 3.065-3.237 4.522l-.953.946.87-.653c1.04-.781 2.49-2.169 3.107-2.973 1.286-1.675 1.958-3.329 2.077-5.114.131-1.951-.475-3.415-1.48-3.578-.224-.036-.328-.008-.464.128Zm6.914.883c-.164.163-.164.281-.002.512.141.2.442.243.6.085.147-.146.121-.434-.052-.59-.19-.172-.379-.175-.546-.007Zm13.631 1.061c-.174.589-.51.814-1.829 1.225-1.261.393-1.823.759-2.254 1.468-.158.259-.413 1.006-.362 1.058.021.021.496-.26 1.056-.625 1.103-.72 2.122-1.301 2.18-1.243.09.09-.594.608-1.618 1.224-1.181.711-1.393.868-1.299.962.032.031.29.014.575-.039 1.405-.26 3.049-1.583 3.682-2.963.164-.357.2-.545.17-.866-.055-.567-.17-.643-.301-.201Zm-12.698.169c-.07.152-.069.326.001.675.052.259.095.618.095.797 0 .916-1.563 2.746-3.432 4.018-.408.278-.705.504-.661.504.124 0 1.85-.974 2.312-1.305 1.881-1.345 2.936-3.01 2.682-4.23-.118-.568-.803-.883-.997-.459Zm-1.556.371c-.203.203-.216.398-.041.647.236.336.865.171.865-.226 0-.196-.242-.471-.472-.538-.125-.036-.236.001-.352.117Zm-1.035 1.675c-.177.252-.163.369.074.605.247.246.406.256.625.038.211-.211.21-.417-.003-.646-.218-.233-.532-.231-.696.003Zm-1.087 1.506c-.114.174-.117.235-.022.432.154.321.508.435.729.236.214-.193.215-.493.002-.705-.229-.228-.545-.212-.709.037Zm-10.142.485c0 .02.056.194.124.387.341.965.047 1.64-1.394 3.198-1.249 1.351-1.66 2.077-1.802 3.187-.073.57.045 1.553.249 2.076.091.232.108.208.654-.909.886-1.814 1.574-3.093 1.926-3.584.298-.415.326-.434.326-.229 0 .368-.353 1.191-1.036 2.418-.787 1.413-1.201 2.26-1.201 2.458 0 .141.014.142.264.013.146-.075.467-.327.715-.56 1.741-1.64 2.87-5.371 2.199-7.274-.17-.483-.465-.894-.765-1.067-.143-.082-.259-.133-.259-.114Zm8.825.797c-.188.207-.115.532.16.712.505.33.925-.314.488-.749-.173-.173-.473-.156-.648.037Zm10.577-.037c-.439.121-1.458.708-1.303.75.046.012.586.063 1.201.113 1.388.113 2.631.327 2.474.426-.174.11-.663.088-2.046-.092-1.408-.183-1.696-.147-1.263.16.49.348 1.149.524 2.126.565 1.171.049 1.952-.081 2.689-.448.585-.292.852-.564.955-.972l.058-.231-.353.233c-.481.318-.984.304-1.865-.049-1.343-.54-1.975-.648-2.673-.455Zm-11.984 1.216c-.177.252-.162.369.075.605.246.246.406.256.625.037.211-.21.21-.417-.004-.645-.217-.233-.531-.232-.696.003Zm4.707.845c-.063.164.031.293.213.293.163 0 .251-.142.192-.31-.05-.142-.348-.13-.405.017Zm-6.138.135c-.25.093-.326.435-.155.696.196.298.676.293.813-.008.183-.401-.24-.843-.658-.688Zm3.553.172c.018.129.082.193.193.193.247 0 .222-.323-.027-.358-.161-.023-.189.005-.166.165Zm5.151.028c-.028.075.002.191.069.257.166.165.414.058.382-.165-.031-.219-.375-.29-.451-.092Zm-4.461.42c-2.67.263-4.691.833-6.502 1.834-2.015 1.114-3.486 2.273-6.503 5.129-1.172 1.109-2.461 2.195-3.399 2.864-1.236.88-2.44 1.251-3.836 1.181-.588-.03-.852-.092-1.463-.344-1.041-.429-1.026-.427-.704-.142.364.322 1.145.698 1.739.839.616.145 1.983.124 2.692-.041 1.699-.396 2.918-1.133 4.929-2.979 1.074-.986 1.016-.969 2.021-.604 1.144.414 1.555 1.359 1.039 2.384-.239.474-.751.883-1.188.948-.725.109-1.54-.514-1.54-1.176 0-.64.524-1.087 1.091-.931.446.123.606.359.575.847-.011.171-.368.555-.515.555-.054 0 0-.092.12-.203.277-.255.283-.568.016-.834-.268-.268-.501-.256-.797.039-.324.323-.325.679-.004 1 .309.308.604.377.987.232.34-.13.677-.619.679-.989.004-.625-.542-1.184-1.244-1.274-.487-.063-1.024.206-1.352.677-.616.885-.342 2.021.633 2.622.315.194.515.25 1.011.282.55.035.668.015 1.08-.187.55-.268 1.025-.823 1.275-1.492.338-.899.165-1.606-.576-2.361-.262-.268-.457-.487-.433-.487.108 0 .671.383.952.648.409.386.526.743.396 1.207-.084.299-.079.395.033.611.427.823 1.457.38 1.457-.626 0-.212-.09-.47-.269-.77-.503-.842-1.76-1.467-3.11-1.547-.378-.022-.676-.065-.663-.095.014-.03.416-.421.894-.868 2.591-2.42 4.724-3.811 6.917-4.51.692-.221.92-.258 1.384-.226 1.386.095 2.387 1.154 2.384 2.522a2.146 2.146 0 0 1-1.5 2.03c-.525.169-.741.171-1.129.009-.393-.164-.581-.338-.775-.716-.423-.827.06-1.553 1.031-1.553.279 0 .437.052.609.199.218.188.232.238.224.823-.009.681.039.713.439.286.625-.667.56-1.559-.159-2.172-.79-.675-2.07-.524-2.892.34-.511.537-.609.803-.609 1.639 0 .646.03.8.221 1.162.23.436.719.933 1.119 1.138.395.202 1.152.319 1.662.257 1.123-.136 1.866-.635 2.359-1.582.804-1.546.584-3.009-.619-4.12l-.514-.475.288.05c.158.027.511.075.784.106 1.048.119 2.582.746 3.48 1.421.582.439 1.79 1.972 2.187 2.776.572 1.16.774 1.99.785 3.234.008.912-.02 1.168-.184 1.694-.607 1.94-1.763 3.073-3.391 3.325-1.369.211-3.018-.478-3.738-1.562-.271-.409-.333-.927-.118-.997.059-.02.081.029.055.126-.048.185.168.43.379.43.209 0 .421-.264.421-.523 0-.323-.269-.551-.65-.551-.482 0-.627.206-.571.815.1 1.101 1.216 2.176 2.638 2.541.67.172 1.765.11 2.427-.138 1.312-.489 2.422-1.924 2.876-3.716.145-.57.168-.849.133-1.604-.059-1.273-.404-2.392-1.099-3.57-.226-.382-.242-.432-.075-.237.343.403 1.005 1.847 1.19 2.598.426 1.727.06 3.625-.986 5.111-.66.938-1.49 1.553-2.433 1.803-.543.145-1.63.146-2.166.003-1.347-.36-2.413-1.388-2.743-2.647l-.11-.422.033.64c.054 1.073.493 1.806 1.468 2.455.717.478 1.424.678 2.388.676 2.191-.003 3.823-1.131 4.85-3.351 1.603-3.466-.554-8.23-4.603-10.166-.725-.347-.626-.363.774-.124 2.593.441 4.814 1.574 6.793 3.465 3.875 3.702 4.898 8.877 2.576 13.03-.279.499-1.072 1.596-1.457 2.016-.664.725-1.772 1.393-2.89 1.743-.523.164-.79.193-1.736.191-1.318-.003-1.821-.117-2.974-.671-1.707-.823-3.018-2.663-3.081-4.326-.01-.259-.019-.246-.087.124-.219 1.194.26 2.776 1.134 3.746 2.563 2.844 7.617 2.731 10.546-.237.24-.244.498-.547.573-.674.076-.128.162-.232.191-.232.03 0 .223.349.429.775.55 1.134 1.065 1.866 1.797 2.553.692.65 1.577 1.175 2.127 1.263.661.105 1.214-.335 1.029-.82-.092-.242-.457-.536-.742-.599-1.508-.329-2.723-1.167-3.906-2.695l-.565-.728.338-.508c.996-1.496 1.506-3.268 1.504-5.232-.001-1.362-.158-2.346-.574-3.595-1.541-4.622-5.469-8.249-10.1-9.324-1.52-.353-3.797-.568-4.887-.461Zm7 .322c-.204.246.127.576.373.372.157-.129.155-.203-.007-.365-.162-.161-.236-.163-.366-.007Zm-28.466.491c-.704.16-1.364.501-1.824.94l-.388.371-.245-.305c-.835-1.037-2.051-.597-2.884 1.045-.374.737-.492 1.311-.492 2.402-.002 2.016.556 3.722 1.601 4.893.493.553.419.533-.372-.105-2.167-1.747-3.297-4.059-2.875-5.885.108-.469.053-.688-.211-.828-.189-.101-.23-.094-.408.073-.656.615-.436 2.661.486 4.512.553 1.109 1.112 1.803 1.935 2.403.733.534 2.427 1.376 3.668 1.823l.878.317.083.629c.198 1.497 1.084 2.501 2.389 2.707.271.043.509.063.529.044.02-.019-.099-.173-.264-.343-.546-.56-.567-.946-.074-1.36.137-.115.792-.491 1.454-.835 1.869-.971 2.839-1.629 3.229-2.19.119-.172.216-.338.216-.371 0-.032-.196.04-.435.161-1.34.678-3.361 1.041-4.795.862-1.4-.175-2.297-.646-3.344-1.756-1.293-1.371-1.79-3.081-1.372-4.714.324-1.262.944-2.053 2.028-2.588 1.387-.683 2.86-.556 3.847.334.301.272.676.867.798 1.269.054.177.044.185-.122.096-.316-.169-1.046-.139-1.305.053-.413.307-.56.664-.56 1.357 0 .539.031.672.221.958.312.471.714.648 1.477.648.512 0 .704-.041 1.09-.23.617-.302 1.112-.792 1.383-1.369.196-.417.219-.565.219-1.378 0-.862-.014-.94-.27-1.459-.48-.971-1.54-1.766-2.795-2.095-.709-.186-1.881-.226-2.496-.086Zm30.742.796c-.079.248.155.483.355.357.079-.05.144-.18.144-.288 0-.277-.415-.335-.499-.069Zm-3.478.84c1.525 1.286 2.633 2.582 3.185 3.726.904 1.872 1.023 3.757.417 6.609-.318 1.493-.374 2.125-.255 2.835.192 1.136.958 2.204 1.753 2.441.878.262 1.779-.685 2.227-2.342.759-2.805.141-5.774-1.806-8.669-1.267-1.885-3.193-3.635-5.004-4.547-.856-.431-.98-.444-.517-.053Zm5.643.603c-.073.074-.134.166-.134.205 0 .128.266.339.395.314.205-.041.323-.29.217-.459-.124-.197-.316-.221-.478-.06Zm-43.655.17c-.235.61.319 1.754 1.098 2.269.632.418.638.272.015-.382-.328-.345-.571-.652-.54-.682.032-.03.337.243.678.607l.621.661-.039-.385c-.052-.507-.282-.812-.913-1.209-.608-.383-.735-.519-.752-.801-.013-.236-.093-.273-.168-.078Zm38.178.944c.083.091.131.165.109.165-.023 0-.109-.074-.192-.165-.082-.091-.131-.165-.108-.165.023 0 .109.074.191.165Zm7.255.777c-.23.276.18.685.457.456.069-.057.113-.2.1-.317-.019-.16-.079-.22-.239-.239-.118-.013-.261.031-.318.1Zm-45.477 1.032c-.251.46.09 1.323.839 2.121.47.502 1.169.945 1.49.945.238 0 .173-.098-.325-.495-.698-.557-1.182-1.003-1.182-1.091 0-.105.406.191 1.201.874.703.605.793.604.628-.004-.146-.54-.526-.903-1.36-1.3-.841-.4-1.041-.574-1.126-.976l-.057-.272-.108.198Zm46.931 1.175c-.141.2-.099.373.117.489.207.11.402.018.462-.219.1-.398-.344-.604-.579-.27Zm.989 2.352c-.25.249-.106.614.242.614.349 0 .493-.365.243-.614-.072-.072-.181-.13-.243-.13-.061 0-.171.058-.242.13Zm-47.098.356c0 .278.458.713 1.011.961.69.309 1.928.39 2.519.165.542-.206.338-.286-.755-.294-.502-.004-.986-.039-1.077-.079-.103-.044.302-.073 1.069-.076l1.234-.006-.157-.174c-.213-.235-.694-.472-1.084-.534-.204-.032-.586.012-1.05.122-.946.224-1.146.218-1.455-.041-.243-.204-.255-.206-.255-.044Zm4.741 1.791c-.241.064-.841.327-1.335.584-1.064.552-1.521.635-2.034.368-.179-.093-.34-.154-.358-.137-.084.084.265.566.541.748.512.337 1.008.47 1.928.517 1.453.074 2.908-.328 3.516-.974l.249-.263-.397.057c-.218.031-.814.165-1.325.298-1.002.259-2.064.406-1.923.264.142-.142 1.115-.42 2.237-.639 1.66-.324 1.525-.271 1.194-.474-.384-.236-1.184-.479-1.554-.472-.167.003-.5.058-.739.123Zm42.793.388c-.208.167-.237.372-.079.566.2.247.564.164.642-.147.043-.17.013-.254-.132-.371-.222-.179-.263-.184-.431-.048Zm-.266 2.666c-.292.291-.006.77.399.669.237-.06.37-.408.236-.621-.114-.182-.473-.209-.635-.048Zm-.652 2.457c-.25.193-.217.612.058.737.443.201.833-.378.474-.703-.181-.163-.349-.174-.532-.034Zm-1.061 2.013c1.623 1.909 4.166 2.923 6.692 2.667 2.444-.247 3.849-.99 3.849-2.037 0-.449-.307-.702-.903-.743-.45-.031-.543-.002-1.487.463-2.221 1.096-3.806 1.317-5.645.788a7.761 7.761 0 0 1-2.212-1.044c-.454-.304-.479-.312-.294-.094Zm-.772 1.116c-.065.497-.412 1.291-.728 1.667-.107.127-.455.406-.774.621-.498.336-.583.428-.606.663-.034.356.104.511.456.511.413 0 1.099-.669 1.484-1.446.322-.651.445-1.523.303-2.149l-.075-.331-.06.464Zm.391.239c.183.713.245 1.676.147 2.311-.195 1.275-.513 1.919-1.522 3.089-.58.672-.727.977-.58 1.203.117.181.529.148.884-.071.372-.229.999-1.17 1.307-1.961.493-1.266.503-2.679.028-4.068-.204-.599-.37-.914-.264-.503Zm-12.728 1.063c-.7.46-.791 1.401-.197 2.047.286.312.814.454 1.099.296.112-.063.055-.074-.226-.042-.334.038-.408.013-.678-.222-.776-.68-.495-1.855.469-1.963.312-.035.495.016 1.199.338 1.867.854 3.906 1.192 5.345.885.645-.137.545-.207-.122-.085-1.149.21-2.69-.089-4.655-.904-1.341-.556-1.809-.63-2.234-.35Z" clip-rule="evenodd"/><path fill="#ffeede" fill-rule="evenodd" d="M551.858 209.073c1.296.255 2.088 1.27 1.843 2.36-.117.519-.441 1.13-.78 1.468-.215.214-.487.35-1.096.548-.446.144-.905.311-1.019.37-.372.192-.98.882-1.238 1.404-.458.929-.543 1.412-.542 3.059.002 1.339.025 1.587.235 2.479.306 1.299.767 2.542 1.47 3.967l.571 1.157-.545-.573c-2.448-2.578-4.08-7.317-3.762-10.929.134-1.531.57-2.754 1.348-3.786.649-.862 1.461-1.372 2.434-1.531.544-.089.594-.089 1.081.007Zm-23.861.118c.144.062.303.187.352.279.049.092.089.604.089 1.148 0 2.057.805 3.838 2.559 5.661 1.963 2.04 4.822 3.654 8.831 4.987.729.242 1.251.442 1.16.443-.352.006-2.28-.346-3.432-.626-2.439-.593-4.708-1.468-5.962-2.299-.736-.489-1.992-1.802-2.607-2.725-.535-.805-1.27-2.279-1.539-3.088-.46-1.383-.552-2.697-.232-3.321.254-.494.441-.603.781-.459Zm-3.832 1.506c.101.448.376.695 1.2 1.079.956.446 1.28.683 1.545 1.135.226.385.41 1.149.254 1.058a10.419 10.419 0 0 1-.59-.482c-.664-.573-1.545-1.21-1.599-1.157-.073.074.244.37 1.123 1.047.467.36.849.694.849.741 0 .125-.459.011-.952-.237-.569-.286-1.535-1.271-1.801-1.838-.294-.625-.35-.983-.207-1.327l.118-.284.06.265Zm14.513 1.299a.755.755 0 0 1 .018.31c-.039.273-.525.326-.608.067-.105-.33.467-.696.59-.377Zm-5.056.831c.098.149.155.523.204 1.343.038.626.114 1.268.17 1.427.379 1.088 2.423 3.034 4.454 4.239.368.218 1.211.642 1.873.943.663.3 1.192.558 1.178.573-.015.014-.572-.14-1.237-.343-2.669-.814-4.596-1.85-5.975-3.21-1.816-1.79-2.508-4.049-1.539-5.016.24-.239.701-.216.872.044Zm12.285.199c.259.258.219.63-.146 1.376-.803 1.639-.781 3.329.067 5.346.603 1.435 1.77 3.065 3.236 4.522l.953.946-.87-.653c-1.039-.781-2.49-2.169-3.107-2.973-1.286-1.675-1.958-3.329-2.077-5.114-.13-1.951.476-3.415 1.481-3.578.224-.036.327-.008.463.128Zm-6.913.883c.164.163.164.281.001.512-.14.2-.442.243-.6.085-.146-.146-.121-.434.052-.59.19-.172.379-.175.547-.007Zm-13.632 1.061c.175.589.511.814 1.829 1.225 1.262.393 1.824.759 2.254 1.468.158.259.414 1.006.362 1.058-.021.021-.496-.26-1.056-.625-1.102-.72-2.122-1.301-2.179-1.243-.091.09.593.608 1.618 1.224 1.18.711 1.393.868 1.299.962-.032.031-.291.014-.575-.039-1.405-.26-3.049-1.583-3.682-2.963-.164-.357-.201-.545-.17-.866.054-.567.169-.643.3-.201Zm12.699.169c.069.152.069.326-.002.675a5.207 5.207 0 0 0-.095.797c0 .916 1.564 2.746 3.433 4.018.407.278.704.504.661.504-.124 0-1.851-.974-2.313-1.305-1.88-1.345-2.935-3.01-2.682-4.23.118-.568.804-.883.998-.459Zm1.556.371c.203.203.215.398.041.647-.236.336-.865.171-.865-.226 0-.196.241-.471.472-.538.124-.036.236.001.352.117Zm1.035 1.675c.177.252.162.369-.075.605-.246.246-.406.256-.625.038-.211-.211-.21-.417.004-.646.217-.233.531-.231.696.003Zm1.086 1.506c.114.174.117.235.023.432-.155.321-.508.435-.729.236-.214-.193-.215-.493-.003-.705.229-.228.546-.212.709.037Zm10.143.485c0 .02-.056.194-.124.387-.342.965-.047 1.64 1.394 3.198 1.248 1.351 1.659 2.077 1.802 3.187.073.57-.045 1.553-.25 2.076-.09.232-.107.208-.653-.909-.887-1.814-1.574-3.093-1.927-3.584-.297-.415-.325-.434-.325-.229 0 .368.352 1.191 1.036 2.418.787 1.413 1.201 2.26 1.201 2.458 0 .141-.015.142-.265.013-.145-.075-.467-.327-.714-.56-1.742-1.64-2.87-5.371-2.2-7.274.171-.483.465-.894.766-1.067.142-.082.259-.133.259-.114Zm-8.825.797c.188.207.115.532-.16.712-.505.33-.925-.314-.489-.749.174-.173.474-.156.649.037Zm-10.577-.037c.438.121 1.457.708 1.302.75-.045.012-.586.063-1.201.113-1.387.113-2.63.327-2.473.426.173.11.663.088 2.045-.092 1.409-.183 1.696-.147 1.264.16-.49.348-1.15.524-2.127.565-1.17.049-1.952-.081-2.689-.448-.585-.292-.852-.564-.954-.972l-.058-.231.352.233c.482.318.984.304 1.865-.049 1.343-.54 1.976-.648 2.674-.455Zm11.983 1.216c.177.252.163.369-.074.605-.247.246-.407.256-.625.037-.211-.21-.21-.417.003-.645.218-.233.531-.232.696.003Zm-4.707.845c.063.164-.03.293-.213.293-.163 0-.251-.142-.192-.31.05-.142.349-.13.405.017Zm6.138.135c.25.093.326.435.155.696-.195.298-.675.293-.813-.008-.183-.401.241-.843.658-.688Zm-3.552.172c-.019.129-.083.193-.193.193-.247 0-.223-.323.027-.358.161-.023.188.005.166.165Zm-5.152.028c.029.075-.002.191-.068.257-.166.165-.415.058-.383-.165.032-.219.375-.29.451-.092Zm4.462.42c2.669.263 4.691.833 6.502 1.834 2.015 1.114 3.486 2.273 6.503 5.129 1.172 1.109 2.461 2.195 3.399 2.864 1.236.88 2.44 1.251 3.836 1.181.588-.03.851-.092 1.463-.344 1.04-.429 1.026-.427.704-.142-.365.322-1.146.698-1.74.839-.616.145-1.982.124-2.692-.041-1.699-.396-2.917-1.133-4.929-2.979-1.074-.986-1.015-.969-2.02-.604-1.144.414-1.556 1.359-1.039 2.384.238.474.751.883 1.188.948.725.109 1.54-.514 1.54-1.176 0-.64-.525-1.087-1.092-.931-.445.123-.606.359-.574.847.011.171.367.555.515.555.054 0 0-.092-.121-.203-.276-.255-.282-.568-.016-.834.268-.268.502-.256.797.039.324.323.326.679.004 1-.308.308-.603.377-.986.232-.34-.13-.677-.619-.68-.989-.003-.625.542-1.184 1.244-1.274.487-.063 1.025.206 1.352.677.617.885.343 2.021-.633 2.622-.314.194-.514.25-1.01.282-.551.035-.669.015-1.081-.187-.55-.268-1.024-.823-1.275-1.492-.337-.899-.165-1.606.576-2.361.263-.268.458-.487.434-.487-.109 0-.672.383-.953.648-.409.386-.526.743-.395 1.207.083.299.078.395-.034.611-.427.823-1.456.38-1.456-.626 0-.212.09-.47.269-.77.502-.842 1.76-1.467 3.109-1.547.378-.022.676-.065.663-.095-.013-.03-.415-.421-.894-.868-2.591-2.42-4.724-3.811-6.917-4.51-.692-.221-.919-.258-1.384-.226-1.385.095-2.386 1.154-2.384 2.522.002.92.61 1.743 1.5 2.03.526.169.741.171 1.129.009.394-.164.582-.338.776-.716.422-.827-.06-1.553-1.032-1.553-.278 0-.437.052-.609.199-.218.188-.232.238-.224.823.01.681-.039.713-.439.286-.625-.667-.559-1.559.159-2.172.79-.675 2.07-.524 2.893.34.51.537.609.803.608 1.639 0 .646-.029.8-.221 1.162-.229.436-.718.933-1.119 1.138-.394.202-1.151.319-1.662.257-1.122-.136-1.866-.635-2.358-1.582-.804-1.546-.585-3.009.618-4.12l.514-.475-.287.05c-.158.027-.512.075-.785.106-1.047.119-2.581.746-3.479 1.421-.583.439-1.791 1.972-2.187 2.776-.573 1.16-.774 1.99-.785 3.234-.008.912.019 1.168.184 1.694.607 1.94 1.762 3.073 3.391 3.325 1.369.211 3.018-.478 3.738-1.562.271-.409.332-.927.118-.997-.06-.02-.081.029-.056.126.049.185-.168.43-.379.43-.208 0-.421-.264-.421-.523 0-.323.27-.551.65-.551.483 0 .627.206.572.815-.1 1.101-1.217 2.176-2.639 2.541-.67.172-1.765.11-2.427-.138-1.311-.489-2.422-1.924-2.876-3.716-.144-.57-.167-.849-.132-1.604.059-1.273.403-2.392 1.099-3.57.226-.382.241-.432.075-.237-.344.403-1.005 1.847-1.191 2.598-.426 1.727-.059 3.625.986 5.111.661.938 1.49 1.553 2.433 1.803.544.145 1.631.146 2.166.003 1.348-.36 2.414-1.388 2.743-2.647l.111-.422-.033.64c-.055 1.073-.493 1.806-1.468 2.455-.717.478-1.424.678-2.388.676-2.192-.003-3.823-1.131-4.85-3.351-1.604-3.466.554-8.23 4.603-10.166.725-.347.625-.363-.775-.124-2.592.441-4.814 1.574-6.793 3.465-3.875 3.702-4.898 8.877-2.576 13.03.28.499 1.072 1.596 1.457 2.016.664.725 1.772 1.393 2.89 1.743.523.164.79.193 1.736.191 1.319-.003 1.821-.117 2.974-.671 1.708-.823 3.019-2.663 3.082-4.326.01-.259.019-.246.087.124.219 1.194-.26 2.776-1.134 3.746-2.564 2.844-7.618 2.731-10.546-.237-.24-.244-.498-.547-.574-.674-.075-.128-.161-.232-.191-.232-.029 0-.222.349-.429.775-.549 1.134-1.065 1.866-1.796 2.553-.693.65-1.578 1.175-2.127 1.263-.662.105-1.215-.335-1.03-.82.093-.242.457-.536.743-.599 1.508-.329 2.722-1.167 3.906-2.695l.564-.728-.338-.508c-.996-1.496-1.505-3.268-1.504-5.232.001-1.362.158-2.346.575-3.595 1.541-4.622 5.469-8.249 10.099-9.324 1.521-.353 3.798-.568 4.888-.461Zm-7.001.322c.205.246-.126.576-.373.372-.156-.129-.155-.203.007-.365.162-.161.236-.163.366-.007Zm28.467.491c.703.16 1.364.501 1.823.94l.389.371.245-.305c.834-1.037 2.05-.597 2.883 1.045.374.737.492 1.311.493 2.402.001 2.016-.557 3.722-1.601 4.893-.493.553-.419.533.371-.105 2.167-1.747 3.297-4.059 2.875-5.885-.108-.469-.052-.688.212-.828.188-.101.23-.094.407.073.657.615.436 2.661-.486 4.512-.553 1.109-1.112 1.803-1.934 2.403-.734.534-2.428 1.376-3.668 1.823l-.879.317-.083.629c-.198 1.497-1.084 2.501-2.389 2.707-.271.043-.509.063-.528.044-.02-.019.099-.173.264-.343.545-.56.566-.946.074-1.36-.138-.115-.792-.491-1.455-.835-1.868-.971-2.838-1.629-3.228-2.19-.119-.172-.217-.338-.217-.371 0-.032.196.04.435.161 1.34.678 3.362 1.041 4.795.862 1.4-.175 2.297-.646 3.344-1.756 1.293-1.371 1.791-3.081 1.372-4.714-.323-1.262-.943-2.053-2.027-2.588-1.387-.683-2.86-.556-3.848.334-.301.272-.675.867-.797 1.269-.054.177-.044.185.121.096.317-.169 1.046-.139 1.305.053.413.307.56.664.56 1.357 0 .539-.03.672-.22.958-.312.471-.715.648-1.478.648-.511 0-.704-.041-1.09-.23-.616-.302-1.111-.792-1.382-1.369-.196-.417-.22-.565-.22-1.378 0-.862.015-.94.271-1.459.479-.971 1.54-1.766 2.794-2.095.709-.186 1.881-.226 2.497-.086Zm-30.743.796c.079.248-.154.483-.355.357-.079-.05-.143-.18-.143-.288 0-.277.414-.335.498-.069Zm3.478.84c-1.525 1.286-2.632 2.582-3.185 3.726-.903 1.872-1.022 3.757-.416 6.609.317 1.493.374 2.125.254 2.835-.192 1.136-.958 2.204-1.753 2.441-.877.262-1.779-.685-2.227-2.342-.759-2.805-.14-5.774 1.806-8.669 1.268-1.885 3.194-3.635 5.004-4.547.857-.431.98-.444.517-.053Zm-5.643.603c.074.074.134.166.134.205 0 .128-.265.339-.394.314-.206-.041-.324-.29-.218-.459.125-.197.317-.221.478-.06Zm43.656.17c.234.61-.32 1.754-1.098 2.269-.633.418-.638.272-.015-.382.328-.345.571-.652.539-.682-.031-.03-.336.243-.678.607l-.621.661.039-.385c.052-.507.282-.812.913-1.209.608-.383.736-.519.752-.801.014-.236.094-.273.169-.078Zm-38.179.944c-.082.091-.131.165-.108.165.023 0 .109-.074.191-.165.083-.091.131-.165.109-.165-.023 0-.109.074-.192.165Zm-7.255.777c.23.276-.18.685-.457.456-.068-.057-.113-.2-.099-.317.019-.16.078-.22.239-.239.118-.013.261.031.317.1Zm45.478 1.032c.251.46-.091 1.323-.839 2.121-.471.502-1.17.945-1.49.945-.238 0-.173-.098.325-.495.697-.557 1.182-1.003 1.182-1.091 0-.105-.407.191-1.201.874-.704.605-.793.604-.628-.004.146-.54.525-.903 1.359-1.3.842-.4 1.042-.574 1.126-.976l.058-.272.108.198Zm-46.931 1.175c.14.2.099.373-.117.489-.207.11-.403.018-.462-.219-.1-.398.344-.604.579-.27Zm-.989 2.352c.25.249.106.614-.243.614s-.493-.365-.243-.614c.072-.072.181-.13.243-.13s.171.058.243.13Zm47.098.356c0 .278-.458.713-1.012.961-.689.309-1.928.39-2.518.165-.542-.206-.339-.286.755-.294.501-.004.986-.039 1.077-.079.103-.044-.302-.073-1.069-.076l-1.235-.006.158-.174c.212-.235.694-.472 1.084-.534.203-.032.585.012 1.049.122.946.224 1.147.218 1.456-.041.243-.204.255-.206.255-.044Zm-4.741 1.791c.24.064.841.327 1.335.584 1.064.552 1.521.635 2.033.368.179-.093.341-.154.359-.137.083.084-.266.566-.542.748-.511.337-1.007.47-1.927.517-1.454.074-2.909-.328-3.517-.974l-.248-.263.396.057c.218.031.815.165 1.326.298 1.001.259 2.064.406 1.922.264-.142-.142-1.114-.42-2.236-.639-1.66-.324-1.525-.271-1.194-.474.384-.236 1.183-.479 1.553-.472.167.003.5.058.74.123Zm-42.793.388c.208.167.236.372.079.566-.201.247-.564.164-.643-.147-.042-.17-.012-.254.132-.371.222-.179.263-.184.432-.048Zm.265 2.666c.292.291.006.77-.399.669-.237-.06-.369-.408-.236-.621.115-.182.473-.209.635-.048Zm.652 2.457c.251.193.218.612-.058.737-.443.201-.833-.378-.473-.703.181-.163.348-.174.531-.034Zm1.061 2.013c-1.623 1.909-4.166 2.923-6.692 2.667-2.444-.247-3.849-.99-3.849-2.037 0-.449.308-.702.904-.743.449-.031.543-.002 1.487.463 2.221 1.096 3.806 1.317 5.644.788a7.722 7.722 0 0 0 2.212-1.044c.455-.304.48-.312.294-.094Zm.773 1.116c.065.497.412 1.291.728 1.667.106.127.454.406.773.621.499.336.583.428.606.663.035.356-.104.511-.455.511-.413 0-1.099-.669-1.484-1.446-.323-.651-.446-1.523-.304-2.149l.075-.331.061.464Zm-.391.239c-.184.713-.245 1.676-.148 2.311.196 1.275.513 1.919 1.523 3.089.579.672.727.977.58 1.203-.118.181-.53.148-.885-.071-.372-.229-.999-1.17-1.307-1.961-.492-1.266-.502-2.679-.028-4.068.205-.599.37-.914.265-.503Zm12.727 1.063c.701.46.791 1.401.198 2.047-.287.312-.815.454-1.099.296-.113-.063-.056-.074.225-.042.335.038.409.013.678-.222.776-.68.496-1.855-.468-1.963-.313-.035-.495.016-1.2.338-1.867.854-3.905 1.192-5.344.885-.645-.137-.545-.207.122-.085 1.149.21 2.689-.089 4.655-.904 1.341-.556 1.809-.63 2.233-.35Z" clip-rule="evenodd"/><circle cx="572.493" cy="229.507" r="20.493" fill="#ffeede" stroke="#000" stroke-width="4"/><path fill="#000" d="M566.189 238.609v-17.732h8.151c2.094 0 3.657.431 4.689 1.292 1.033.844 1.549 1.959 1.549 3.344 0 .912-.221 1.714-.661 2.406-.425.676-1.032 1.216-1.821 1.622-.774.388-1.7.582-2.777.582l.455-1.216c1.123 0 2.102.194 2.937.583.835.371 1.48.92 1.935 1.646.47.71.706 1.579.706 2.61 0 1.536-.562 2.735-1.685 3.597-1.108.844-2.732 1.266-4.872 1.266h-8.606Zm4.463-3.622h3.779c.774 0 1.358-.144 1.753-.431.41-.304.614-.76.614-1.368 0-.608-.204-1.055-.614-1.342-.395-.304-.979-.456-1.753-.456h-4.098v-3.471h3.415c.759 0 1.328-.143 1.707-.43.38-.287.569-.718.569-1.292 0-.574-.189-.997-.569-1.267-.379-.287-.948-.43-1.707-.43h-3.096v10.487ZM734.981 348.199c.327-1.956-3.686-1.448-6.142-.815-11.056 2.852-15.15 2.037-18.426 1.629-10.81-1.629-15.696 5.569-16.788 9.371-.409 1.766-.819 5.541.819 6.519 3.685 1.63 8.599-2.037 10.236-4.482 1.311-1.955 4.095-2.173 5.323-2.037 3.822-.136 12.121-.652 14.741-1.629 3.276-1.223 9.827-6.112 10.237-8.556Zm-45.56 20.563c-28.641 1.366-34.285-3.448-32.509-6.831 3.703-4.838 13.582-12.348 21.154-5.176 4.886 4.628 10.222 8.112 13.103 8.966 2.551.757-.377 2.899-1.748 3.041Z"/><path fill="#F9A66E" d="M705.09 227.599c-.983 7.171-4.504 9.507-6.142 9.779l4.504 12.223c4.504-.408 6.961-3.26 9.008-6.519 2.048-3.26-3.685-8.149-4.913-11.408-.983-2.608-2.047-3.803-2.457-4.075Z"/><path fill="#000" d="M708.775 229.229h-4.094c.273-3.939-2.388-12.682-5.733-21.187-3.685-9.371-2.73-27.026-.819-35.854.137 3.395 1.474 14.016 5.733 29.335 4.258 15.32 5.05 24.854 4.913 27.706Z"/><path fill="#F9A66E" fill-rule="evenodd" d="M671.514 132.015c3.943-2.541 6.552-6.956 6.552-11.978 0-7.876-6.417-14.26-14.332-14.26-7.914 0-14.331 6.384-14.331 14.26 0 5.688 3.348 10.599 8.19 12.888v.149l-2.867 2.852 15.15 23.224 6.552-19.15c-1.638-.815-4.914-2.444-4.914-4.074v-3.911Z" clip-rule="evenodd"/><path fill="#F43676" d="M657.593 136.741c-3.276-2.607-4.641-.543-4.914.815 2.593 21.458 7.78 64.538 7.78 65.189 0 .652 1.365 8.421 2.047 12.223l11.875 2.038 17.606-2.038-2.047-21.593-9.417-42.781c.955-2.716 1.965-8.556-1.638-10.186-4.504-2.037-6.552 1.223-6.552 4.075 0 4.563-1.91 8.963-2.866 10.593 0-3.667-1.228-6.519-1.228-8.556 0-1.63-1.092-2.581-1.638-2.852-1.638-1.223-5.733-4.319-9.008-6.927Z"/><path fill="#0D1218" d="M649.813 138.372c1.965-2.281 3.276-2.309 3.685-2.037 1.638 1.63 9.008 16.705 17.198 39.928 6.551 18.579 0 31.916-4.095 36.262 13.758 3.259 19.654-.543 20.882-2.852.983-5.215-3.685-27.162-6.141-37.484-1.365-5.025-4.341-17.438-5.323-26.89 0-1.63.081-4.156 2.047-4.482 1.965-.652 7.37 2.173 9.827 3.667 8.189 4.074 10.646 24.038 11.055 33.817.41 9.778 4.095 22.816 7.371 33.002 2.62 8.148 2.729 15.889 2.456 18.741h-4.504c1.311 4.238-3.002 7.198-5.323 8.149 1.229 3.26 4.259 11.164 6.552 16.705 2.866 6.926 11.055 34.631 9.008 42.373-2.047 7.741-4.914 30.964-5.323 37.076-.328 4.889 1.228 7.47 2.047 8.149l4.095 4.889-22.111 11.815c-2.457-3.259-2.866-24.853-1.638-45.225.983-16.297.409-26.619 0-29.742-1.31-11.408-11.192-21.322-15.969-24.853-2.457 2.444-2.047 49.706-2.457 55.818-.409 6.111-1.228 14.667.41 19.149 1.638 4.482-.819 6.111.819 8.149 2.866 4.889-.41 6.519 1.228 9.778 1.31 2.608 1.638 4.346 1.638 4.889-13.758.978-19.108 5.84-20.064 8.149-4.913-5.704-2.047-40.743-4.913-50.114-2.866-9.371-2.457-45.633-2.457-53.374 0-6.193-2.457-11.815-3.685-13.853-11.465 3.26-14.604-20.371-14.741-32.594-2.729-3.395-8.435-10.593-9.417-12.223-1.229-2.037-2.048-4.482 0-8.964 2.047-4.481 4.913-22.816 4.913-27.705 0-4.889-.819-13.445 3.685-13.853 4.504-.407 16.788-11.408 19.245-14.26Z"/><path fill="#F9A66E" d="m655.545 217.821-6.961 8.556 7.371 3.26c2.457.815 5.568.896 8.189-.408 2.621-1.304 2.73-4.889 2.457-6.519 1.228 0 4.674.567 6.142-.407 2.456-1.63-1.638-2.852-6.961-4.482-6.879-1.956-9.691-.815-10.237 0Z"/><path fill="#000" d="m676.838 110.258-9.009-11c-1.228-1.223-1.228 0-2.456 0-1.229 0-.819-.815-2.867-1.223-2.047-.407-2.047 2.852-3.685 2.038-3.685-1.63-3.685 2.444-5.732 1.629s-3.685 1.223-5.323 5.297c-1.638 4.074-.819 16.297.819 18.742 1.638 2.444 3.685 1.63 3.275 0-.409-1.63 1.638-4.075 3.276-5.297 1.638-1.222 2.047-2.852 2.047-4.889 0-2.037 1.229-4.074 4.504-5.297 3.276-1.222 6.142 1.223 11.875 2.852 4.586 1.304 4.094-1.358 3.276-2.852Z"/></g><defs><clipPath id="a"><path fill="#fff" d="M0 0h735v369H0z"/></clipPath></defs></svg>