<svg xmlns="http://www.w3.org/2000/svg" viewBox="0 0 232.12 21" fill="#fff"><path d="M119 14.25V11.5h-2.72v-1.15H119V7.63h1.17v2.72h2.72v1.15h-2.72v2.75zM10.5.63a9.87 9.87 0 013.84 19A9.87 9.87 0 012.32 5a9.81 9.81 0 014.35-3.59A9.72 9.72 0 0110.5.63m0-.63A10.5 10.5 0 1021 10.5 10.5 10.5 0 0010.5 0"/><path d="M1.75 10.5a8.74 8.74 0 004.94 7.88L2.51 6.94a8.72 8.72 0 00-.76 3.56m14.66-.44a4.69 4.69 0 00-.72-2.42 4.56 4.56 0 01-.86-2A1.58 1.58 0 0116.3 4h.11a8.75 8.75 0 00-12.36.55 9.05 9.05 0 00-.86 1.1h.57l2.33-.11a.36.36 0 010 .72s-.47 0-1 .08l3.18 9.49 1.91-5.75-1.31-3.7L8 6.3a.36.36 0 010-.72l2.3.11 2.33-.11a.36.36 0 010 .72s-.47 0-1 .08l3.16 9.41.9-2.85a10.18 10.18 0 00.64-2.89m-5.75 1.21L8 18.89a8.83 8.83 0 005.38-.14l-.06-.11zm7.53-5a6.69 6.69 0 01.06.9 8.33 8.33 0 01-.66 3.13l-2.61 7.77A8.76 8.76 0 0018.18 6.3m40.36 1.49h-4.17v.44c1.3 0 1.51.29 1.51 1.93v3c0 1.65-.21 2-1.51 2a4.25 4.25 0 01-2.62-1.7l-1.07-1.17a2.33 2.33 0 002.22-2.19c0-1.28-1.09-2.27-3.15-2.27h-4.11v.44c1.31 0 1.52.28 1.52 1.93v3c0 1.65-.21 2-1.52 2v.44h4.64v-.42c-1.3 0-1.51-.3-1.51-2v-.84h.4l2.59 3.24h6.8c3.34 0 4.79-1.77 4.79-3.89s-1.45-3.94-4.79-3.94m-9.78 3.8v-3.1h1a1.43 1.43 0 011.51 1.57 1.41 1.41 0 01-1.51 1.54zm9.85 3.25h-.17c-.84 0-1-.21-1-1.28V8.49h1.12c2.43 0 2.87 1.78 2.87 3.15s-.44 3.2-2.87 3.2m-25.94-2.38l1.61-4.75c.46-1.38.25-1.78-1.24-1.78v-.47h4.39v.46c-1.47 0-1.82.35-2.4 2.06l-2.66 8H32l-2.35-7.33L27.23 16h-.31l-2.59-8c-.56-1.7-.94-2.06-2.29-2.06v-.48h5.18v.46c-1.38 0-1.76.33-1.26 1.78l1.56 4.75 2.37-7h.44zm7.93 3.41a4.46 4.46 0 01-4.66-4.2 4.45 4.45 0 014.66-4.18 4.46 4.46 0 014.66 4.18 4.48 4.48 0 01-4.66 4.2m0-7.66c-2.14 0-2.9 1.93-2.9 3.46s.76 3.45 2.9 3.45 2.92-1.91 2.92-3.45-.74-3.46-2.92-3.46m28.52 6.89v.46h-5.34v-.46c1.56 0 1.84-.4 1.84-2.73V8.63c0-2.33-.28-2.71-1.84-2.71v-.46h4.83c2.4 0 3.73 1.24 3.73 2.9s-1.31 2.86-3.73 2.86h-1.34v1.15c0 2.33.29 2.73 1.85 2.73m-.51-8.8h-1.34v4.06h1.34a1.82 1.82 0 001.91-2 1.87 1.87 0 00-1.91-2.06m19.76 7.07l-.12.42c-.21.76-.46 1.05-2.12 1.05h-.33c-1.21 0-1.42-.29-1.42-1.94v-1.07c1.81 0 2 .17 2 1.38h.44V9.73h-.44c0 1.22-.14 1.38-2 1.38V8.49h1.28c1.66 0 1.91.29 2.12 1l.11.45h.38l-.17-2.2h-6.85v.44c1.3 0 1.51.29 1.51 1.93v3c0 1.51-.18 1.9-1.21 1.95A4.32 4.32 0 0179 13.41l-1.07-1.17a2.32 2.32 0 002.21-2.19c0-1.28-1.09-2.27-3.15-2.27h-4.14v.44c1.3 0 1.51.29 1.51 1.93v3c0 1.65-.21 2-1.51 2v.44h4.64v-.42c-1.3 0-1.51-.3-1.51-2v-.84h.4L79 15.56h9.59l.13-2.19zM76 11.59v-3.1h1a1.44 1.44 0 011.52 1.57A1.42 1.42 0 0177 11.6zm17.07 4.28a3.48 3.48 0 01-2.1-.8 1.7 1.7 0 00-.38.8h-.44v-3.23h.47a2.58 2.58 0 002.63 2.45c.75 0 1.36-.42 1.36-1.12s-.54-1.08-1.5-1.52l-1.33-.63a2.54 2.54 0 01-1.64-2.23 2.36 2.36 0 012.5-2.08 2.92 2.92 0 011.82.61 1.42 1.42 0 00.3-.63h.44v2.75h-.49c-.17-1.09-.77-2-2-2-.65 0-1.26.38-1.26 1s.5.93 1.61 1.45l1.28.63a2.41 2.41 0 011.57 2.1 2.64 2.64 0 01-2.85 2.5m7.07-.05a3.43 3.43 0 01-2.1-.8 1.61 1.61 0 00-.38.8h-.44v-3.23h.46a2.58 2.58 0 002.64 2.45 1.2 1.2 0 001.35-1.09c0-.71-.53-1.08-1.49-1.52l-1.33-.63a2.53 2.53 0 01-1.64-2.26 2.36 2.36 0 012.5-2.08 2.87 2.87 0 011.81.61 1.41 1.41 0 00.31-.63h.44v2.75h-.49c-.17-1.09-.77-2-2-2-.65 0-1.26.38-1.26 1s.49.93 1.61 1.45l1.28.63a2.41 2.41 0 011.56 2.1 2.63 2.63 0 01-2.84 2.5M135.84 2.5h4.36v4.39h-4.36zm5.63 0h4.37v4.39h-4.37zm5.63 0h4.37v4.39h-4.37zm-11.26 5.68h4.36v4.39h-4.36zm5.63 0h4.37v4.39h-4.37zm5.63 0h4.37v4.39h-4.37zm-11.26 5.68h4.36v4.39h-4.36zm5.63 0h4.37v4.39h-4.37z"/><path fill-opacity=".5" d="M147.1 13.86h4.37v4.39h-4.37z"/><path d="M160.4 16.82a5.84 5.84 0 002.64.66c2.05 0 4-1.21 4-4.23 0-2.67-1.48-4.2-3.37-4.2a4.49 4.49 0 00-3.23 1.58zm0-7.52a5.05 5.05 0 013.33-1.3c2.23 0 4.39 1.53 4.39 5.21s-2.42 5.25-5 5.25a7.75 7.75 0 01-3.82-1V2.51h1.11zm9.67-6.8h1.07v15.8h-1.07zm4.8 11.86c0 2.4 1.17 3.06 2.34 3.06a4.34 4.34 0 003.46-2.22v-7h1.12v10.1h-1.12v-1.95a4.74 4.74 0 01-3.82 2.11c-1.58 0-3.1-.91-3.1-4V8.19h1.12zM192 12.57a3.33 3.33 0 00-3.25-3.51 3.61 3.61 0 00-3.75 3.51zm.46 5.06a7.1 7.1 0 01-3.59.87c-3.37-.12-5.1-2.78-5-5.63a4.73 4.73 0 015-4.82c2.7.07 4.55 2.25 4.19 5.44H185a3.9 3.9 0 004 4 6.19 6.19 0 003.14-.77zm4.23-7.46A4.46 4.46 0 01200.37 8c2 0 3.2 1.53 3.2 3.79v6.51h-1.11v-6.25c0-2.19-1.11-3-2.32-3a4.32 4.32 0 00-3.45 2.28v6.97h-1.12V2.51h1.12zm9.83 3.06c0 2.24 1.29 4.19 3.71 4.19s3.71-2 3.71-4.19-1.37-4.15-3.71-4.15-3.71 1.92-3.71 4.15zm8.54 0c0 3.35-2.25 5.23-4.83 5.23-2.9 0-4.84-2.34-4.84-5.23A4.9 4.9 0 01210.23 8a4.83 4.83 0 014.83 5.23zm2.55 3.33a4.86 4.86 0 002.68.86c1.05 0 2.35-.44 2.34-1.51 0-.91-1-1.62-2.5-2.23-1.71-.68-3.2-1.31-3.2-2.93s1.5-2.7 3.48-2.7a6 6 0 012.79.73l-.42.89a5 5 0 00-2.34-.59c-1.66 0-2.41.82-2.41 1.67 0 1.09 1.23 1.5 2.78 2.14 2.43.95 2.94 2 2.94 3 0 1.58-1.47 2.58-3.43 2.58a6.29 6.29 0 01-3.19-.92zm13.47-8.37v1h-3.33v5.53c0 1.63.69 2.69 2.15 2.75a4.18 4.18 0 001.89-.4l.33 1a6.09 6.09 0 01-2.24.45c-1.81 0-3.25-1.11-3.25-3.71V9.14h-1.8v-1h1.8V4.79h1.12v3.4z"/></svg>